# xmcd
#
# Track frame offsets: 
#        150
#        13696
#        25969
#        40191
#        55311
#        68985
#        83767
#        97386
#        114071
#        127551
#        143646
#        155955
#        173341
#        185433
#
# Disc length: 2708 seconds
#
# Revision: 0
# Processed by: cddbd v1.5.2PL0 Copyright (c) Steve Scherf et al.
# Submitted via: ExactAudioCopyFreeDBPlugin 1.0
#
DISCID=b00a920e
DTITLE=Charlie McCoy - Classic Country Hymns (2009)
DYEAR=2009
DGENRE=Hymns
TTITLE0=Precious Memories
TTITLE1=Will The Circle Be Unbroken
TTITLE2=Wayfaring Stranger
TTITLE3=How Great Thou Art
TTITLE4=Unclouded Day
TTITLE5=It Is Well With My Soul
TTITLE6=Love Lifted Me
TTITLE7=Softly And Tenderly
TTITLE8=I Saw The Light
TTITLE9=Sweet Hour Of Prayer
TTITLE10=Just A Closer Walk With Thee
TTITLE11=Whispering Hope
TTITLE12=In The Sweet By And By
TTITLE13=I Believe
EXTD=
EXTT0=
EXTT1=
EXTT2=
EXTT3=
EXTT4=
EXTT5=
EXTT6=
EXTT7=
EXTT8=
EXTT9=
EXTT10=
EXTT11=
EXTT12=
EXTT13=
PLAYORDER=
